<?xml version="1.0" encoding="windows-1252"?>
<!-- Generator: Adobe Illustrator 22.0.1, SVG Export Plug-In . SVG Version: 6.00 Build 0)  -->
<svg version="1.1" id="Layer_1" xmlns="http://www.w3.org/2000/svg" xmlns:xlink="http://www.w3.org/1999/xlink" x="0px" y="0px" viewBox="0 0 100.25 100.25" style="enable-background:new 0 0 100.25 100.25;" xml:space="preserve">
<g>
	<path d="M21.5,71.25h2.649L20.73,82.747c-0.236,0.794,0.216,1.629,1.01,1.865c0.143,0.043,0.287,0.062,0.428,0.062   c0.646,0,1.244-0.421,1.438-1.072l3.673-12.353h10.394l3.673,12.353c0.194,0.651,0.791,1.072,1.438,1.072   c0.142,0,0.286-0.02,0.428-0.062c0.794-0.236,1.246-1.071,1.01-1.865L40.803,71.25H43.5c0.829,0,1.5-0.672,1.5-1.5   s-0.671-1.5-1.5-1.5h-3.589l-2.877-9.675c-0.027-0.091-0.064-0.175-0.105-0.256c3.067-1.567,5.176-4.751,5.176-8.426   c0-4.402-3.026-8.102-7.105-9.153v-6.99c0-0.829-0.671-1.5-1.5-1.5s-1.5,0.671-1.5,1.5v6.713c-4.918,0.333-8.821,4.429-8.821,9.43   c0,3.574,1.992,6.689,4.923,8.299c-0.076,0.117-0.142,0.242-0.184,0.383l-2.877,9.675H21.5c-0.829,0-1.5,0.672-1.5,1.5   S20.671,71.25,21.5,71.25z M26.179,49.893c0-3.563,2.899-6.463,6.463-6.463s6.463,2.899,6.463,6.463   c0,3.564-2.899,6.463-6.463,6.463S26.179,53.457,26.179,49.893z M30.794,59.431c0.025-0.083,0.038-0.167,0.048-0.251   c0.583,0.113,1.184,0.177,1.8,0.177c0.504,0,0.995-0.051,1.478-0.127c0.01,0.067,0.018,0.134,0.038,0.201l2.623,8.819h-8.609   L30.794,59.431z"/>
	<path d="M53.5,84.25h8c0.828,0,1.5-0.672,1.5-1.5V42.745c0-0.195-0.038-0.388-0.112-0.568l-4-9.769   c-0.23-0.563-0.778-0.932-1.388-0.932s-1.157,0.368-1.388,0.932l-4,9.769c-0.081,0.197-0.117,0.402-0.112,0.602V82.75   C52,83.578,52.672,84.25,53.5,84.25z M55,81.25v-3h5v3H55z M57.5,36.935l2.5,6.106V75.25h-5V43.041L57.5,36.935z"/>
	<path d="M72.5,16.25h-60c-0.829,0-1.5,0.671-1.5,1.5v77c0,0.828,0.671,1.5,1.5,1.5h60c0.828,0,1.5-0.672,1.5-1.5v-77   C74,16.921,73.328,16.25,72.5,16.25z M71,93.25H14v-74h57V93.25z"/>
	<path d="M84.5,4.25h-60c-0.829,0-1.5,0.671-1.5,1.5v8c0,0.829,0.671,1.5,1.5,1.5s1.5-0.671,1.5-1.5v-6.5h57v74h-5.5   c-0.828,0-1.5,0.672-1.5,1.5s0.672,1.5,1.5,1.5h7c0.828,0,1.5-0.672,1.5-1.5v-77C86,4.921,85.328,4.25,84.5,4.25z"/>
</g>
</svg>