<svg id="Layer_1" data-name="Layer 1" xmlns="http://www.w3.org/2000/svg" viewBox="0 0 101 101"><path d="M66,22.57s0-.05,0-.07V17h7.5a1.5,1.5,0,0,0,0-3h-18a1.5,1.5,0,0,0,0,3H63v5.5s0,0,0,.06a31.81,31.81,0,1,0,3,0ZM64.35,83.22A28.85,28.85,0,1,1,93.2,54.37,28.88,28.88,0,0,1,64.35,83.22Z"/><path d="M57.14,73.94A20.93,20.93,0,0,1,43.5,54.37a1.5,1.5,0,0,0-3,0A23.94,23.94,0,0,0,56.1,76.75a1.36,1.36,0,0,0,.52.09,1.5,1.5,0,0,0,.52-2.9Z"/><path d="M77.17,70.81a20.84,20.84,0,0,1-10,4.22,1.5,1.5,0,0,0,.19,3h.2A23.76,23.76,0,0,0,79,73.17a1.5,1.5,0,1,0-1.85-2.36Z"/><path d="M69.33,54.37a4.94,4.94,0,0,0-.77-2.63L78.89,41.15a1.5,1.5,0,0,0-2.15-2.09L66.29,49.78a5,5,0,1,0,3,4.59Zm-5,2a2,2,0,1,1,2-2A2,2,0,0,1,64.35,56.36Z"/><path d="M25,55.5A1.5,1.5,0,0,0,23.5,54H5.5a1.5,1.5,0,0,0,0,3h18A1.5,1.5,0,0,0,25,55.5Z"/><path d="M26.5,68H8.5a1.5,1.5,0,0,0,0,3h18a1.5,1.5,0,0,0,0-3Z"/><path d="M26.5,39H8.5a1.5,1.5,0,0,0,0,3h18a1.5,1.5,0,0,0,0-3Z"/></svg>