<?xml version="1.0" encoding="iso-8859-1"?>
<!-- Generator: Adobe Illustrator 21.1.0, SVG Export Plug-In . SVG Version: 6.00 Build 0)  -->
<svg version="1.1" id="Layer_1" xmlns="http://www.w3.org/2000/svg" xmlns:xlink="http://www.w3.org/1999/xlink" x="0px" y="0px"
	 viewBox="0 0 100 100" style="enable-background:new 0 0 100 100;" xml:space="preserve">
<g>
	<path d="M80.378,54.057c-0.014,0-0.028,0-0.042,0.001c-0.061-0.003-5.372,0.08-7.913-5.896c-0.707-1.666-0.949-3.539-1.028-4.469
		c1.571-1.793,2.43-4.065,2.43-6.471c0-4.967-3.705-9.074-8.495-9.732v-9.411c0-0.829-0.672-1.5-1.5-1.5H14.426
		c-0.829,0-1.5,0.671-1.5,1.5v63.844c0,0.828,0.671,1.5,1.5,1.5h49.403c0.828,0,1.5-0.672,1.5-1.5v-6.874H83.4
		c0.828,0,1.5-0.672,1.5-1.5v-6.225h0.674c0.828,0,1.5-0.672,1.5-1.5v-5.069C87.074,57.061,84.07,54.057,80.378,54.057z
		 M70.824,37.221c0,1.835-0.719,3.559-2.024,4.853c-0.292,0.29-0.453,0.688-0.443,1.101c0.004,0.134,0.093,3.305,1.305,6.16
		c3.262,7.67,10.165,7.712,10.729,7.722c2.032,0.007,3.684,1.663,3.684,3.697v3.569h-0.369c-0.098-0.02-0.2-0.031-0.305-0.031
		s-0.206,0.011-0.305,0.031H43.901v-3.569c0-2.025,1.636-3.676,3.655-3.697c0.822,0.041,7.235,0.106,10.61-7.508
		c1.163-2.61,1.399-6.207,1.409-6.358c0.026-0.428-0.131-0.848-0.434-1.152c-1.281-1.287-1.986-2.998-1.986-4.817
		c0-3.768,3.065-6.834,6.833-6.834C67.758,30.387,70.824,33.453,70.824,37.221z M62.329,80.422H15.926V19.578h46.403v7.96
		c-4.633,0.792-8.174,4.827-8.174,9.683c0,2.376,0.837,4.624,2.371,6.405c-0.127,1.181-0.455,3.252-1.102,4.704
		c-2.647,5.975-7.514,5.746-7.712,5.731c-0.039-0.003-0.078-0.005-0.117-0.005c-3.691,0-6.694,3.004-6.694,6.697v5.069
		c0,0.828,0.671,1.5,1.5,1.5h0.831l0.035,6.233c0.004,0.825,0.675,1.491,1.5,1.491h17.562V80.422z M81.9,72.048H46.259l-0.026-4.725
		H81.9V72.048z"/>
	<path d="M37.887,30.107H21.285c-0.829,0-1.5,0.671-1.5,1.5s0.671,1.5,1.5,1.5h16.602c0.829,0,1.5-0.671,1.5-1.5
		S38.716,30.107,37.887,30.107z"/>
	<path d="M37.887,37.589H21.285c-0.829,0-1.5,0.671-1.5,1.5s0.671,1.5,1.5,1.5h16.602c0.829,0,1.5-0.671,1.5-1.5
		S38.716,37.589,37.887,37.589z"/>
</g>
</svg>
