<?xml version="1.0" encoding="utf-8"?>
<!-- Generator: Adobe Illustrator 16.0.0, SVG Export Plug-In . SVG Version: 6.00 Build 0)  -->
<!DOCTYPE svg PUBLIC "-//W3C//DTD SVG 1.1//EN" "http://www.w3.org/Graphics/SVG/1.1/DTD/svg11.dtd" [
	<!ENTITY ns_flows "http://ns.adobe.com/Flows/1.0/">
	<!ENTITY ns_extend "http://ns.adobe.com/Extensibility/1.0/">
	<!ENTITY ns_ai "http://ns.adobe.com/AdobeIllustrator/10.0/">
	<!ENTITY ns_graphs "http://ns.adobe.com/Graphs/1.0/">
]>
<svg version="1.1" id="Слой_1" xmlns:x="&ns_extend;" xmlns:i="&ns_ai;" xmlns:graph="&ns_graphs;"
	 xmlns="http://www.w3.org/2000/svg" xmlns:xlink="http://www.w3.org/1999/xlink" xmlns:a="http://ns.adobe.com/AdobeSVGViewerExtensions/3.0/"
	 x="0px" y="0px" width="150px" height="190px" viewBox="0 0 150 190" enable-background="new 0 0 150 190" xml:space="preserve">
<path fill-rule="evenodd" clip-rule="evenodd" d="M101.374,144.846l-38.578,4.432c-5.336-5.292-18.8-19.509-18.8-28.239
	c0-12.978,7.792-14.431,7.792-14.431l4.679,10.344l2.9-1.523c-2.467-16.122-5.156-34.043-6.709-45.461
	c-1.023-7.523,11.869-9.786,13.342-1.426c1.119,6.365,4.774,29.836,4.774,29.836l3.287,0.071c0,0,1.119-27.445,1.233-31.916
	c0.193-7.596,12.321-8.456,12.427,0.056c0.072,5.865-0.257,32.072-0.257,32.072s14.179,3.961,20.279,10.328
	C104.544,121.308,101.374,144.846,101.374,144.846z"/>
</svg>
