<?xml version="1.0" encoding="utf-8"?>
<!-- Generator: Adobe Illustrator 16.0.0, SVG Export Plug-In . SVG Version: 6.00 Build 0)  -->
<!DOCTYPE svg PUBLIC "-//W3C//DTD SVG 1.1//EN" "http://www.w3.org/Graphics/SVG/1.1/DTD/svg11.dtd" [
	<!ENTITY ns_flows "http://ns.adobe.com/Flows/1.0/">
	<!ENTITY ns_extend "http://ns.adobe.com/Extensibility/1.0/">
	<!ENTITY ns_ai "http://ns.adobe.com/AdobeIllustrator/10.0/">
	<!ENTITY ns_graphs "http://ns.adobe.com/Graphs/1.0/">
]>
<svg version="1.1" id="Слой_1" xmlns:x="&ns_extend;" xmlns:i="&ns_ai;" xmlns:graph="&ns_graphs;"
	 xmlns="http://www.w3.org/2000/svg" xmlns:xlink="http://www.w3.org/1999/xlink" xmlns:a="http://ns.adobe.com/AdobeSVGViewerExtensions/3.0/"
	 x="0px" y="0px" width="150px" height="190px" viewBox="0 0 150 190" enable-background="new 0 0 150 190" xml:space="preserve">
<path fill-rule="evenodd" clip-rule="evenodd" d="M101.372,144.846l-38.576,4.432c-5.336-5.292-18.801-19.51-18.801-28.239
	c0-12.978,7.792-14.431,7.792-14.431l4.678,10.344l2.313-1.214c-2.765-16.36-5.753-34.649-7.324-46.196
	c-1.023-7.523,9.781-8.678,11.254-0.318c1.119,6.365,4.79,29.533,4.79,29.533l3.287,0.07c0,0,0.536-26.927,0.471-32.293
	c-0.093-7.598,10.855-8.456,10.961,0.056c0.072,5.865,0.542,33.034,0.542,33.034l2.612,0.151c0,0,3.316-24.061,3.962-29.331
	c0.923-7.532,12.308-6.634,11.276,1.804c-0.698,5.697-4.208,29.479-4.208,29.479s7.272,2.193,11.341,6.74
	C103.929,120.672,101.372,144.846,101.372,144.846z"/>
</svg>
