<?xml version="1.0" encoding="utf-8"?>
<!-- Generator: Adobe Illustrator 16.0.0, SVG Export Plug-In . SVG Version: 6.00 Build 0)  -->
<!DOCTYPE svg PUBLIC "-//W3C//DTD SVG 1.1//EN" "http://www.w3.org/Graphics/SVG/1.1/DTD/svg11.dtd" [
	<!ENTITY ns_flows "http://ns.adobe.com/Flows/1.0/">
	<!ENTITY ns_extend "http://ns.adobe.com/Extensibility/1.0/">
	<!ENTITY ns_ai "http://ns.adobe.com/AdobeIllustrator/10.0/">
	<!ENTITY ns_graphs "http://ns.adobe.com/Graphs/1.0/">
]>
<svg version="1.1" id="Слой_1" xmlns:x="&ns_extend;" xmlns:i="&ns_ai;" xmlns:graph="&ns_graphs;"
	 xmlns="http://www.w3.org/2000/svg" xmlns:xlink="http://www.w3.org/1999/xlink" xmlns:a="http://ns.adobe.com/AdobeSVGViewerExtensions/3.0/"
	 x="0px" y="0px" width="150px" height="190px" viewBox="0 0 150 190" enable-background="new 0 0 150 190" xml:space="preserve">
<path fill-rule="evenodd" clip-rule="evenodd" d="M100.913,144.899l-38.117,4.378c-5.336-5.292-18.801-19.51-18.801-28.239
	c0-12.978,7.791-14.431,7.791-14.431l4.679,10.344l2.312-1.214c-2.765-16.36-5.754-34.649-7.324-46.196
	c-1.023-7.523,9.44-8.678,10.914-0.318c1.119,6.365,4.236,29.533,4.236,29.533l3.287,0.07c0,0,0.167-26.927,0.101-32.293
	c-0.093-7.598,10.855-8.456,10.962,0.056c0.072,5.865,0.229,33.95,0.229,33.95l2.612,0.705c0,0,3.87-25.531,4.516-30.801
	c0.923-7.532,11.626-6.634,10.594,1.804c-0.697,5.697-4.786,32.159-4.786,32.159l2.386,0.849c0,0,6.648-18.491,7.912-22.513
	c2.053-6.535,11.554-3.488,9.256,3.833C105.004,114.167,101.92,135.726,100.913,144.899z"/>
</svg>
