<?xml version="1.0" encoding="utf-8"?>
<!-- Generator: Adobe Illustrator 16.0.0, SVG Export Plug-In . SVG Version: 6.00 Build 0)  -->
<!DOCTYPE svg PUBLIC "-//W3C//DTD SVG 1.1//EN" "http://www.w3.org/Graphics/SVG/1.1/DTD/svg11.dtd" [
	<!ENTITY ns_flows "http://ns.adobe.com/Flows/1.0/">
	<!ENTITY ns_extend "http://ns.adobe.com/Extensibility/1.0/">
	<!ENTITY ns_ai "http://ns.adobe.com/AdobeIllustrator/10.0/">
	<!ENTITY ns_graphs "http://ns.adobe.com/Graphs/1.0/">
]>
<svg version="1.1" id="Слой_1" xmlns:x="&ns_extend;" xmlns:i="&ns_ai;" xmlns:graph="&ns_graphs;"
	 xmlns="http://www.w3.org/2000/svg" xmlns:xlink="http://www.w3.org/1999/xlink" xmlns:a="http://ns.adobe.com/AdobeSVGViewerExtensions/3.0/"
	 x="0px" y="0px" width="150px" height="190px" viewBox="0 0 150 190" enable-background="new 0 0 150 190" xml:space="preserve">
<path fill-rule="evenodd" clip-rule="evenodd" d="M111.547,79.349c-0.365,3.426-5.924,43.141-7.568,61.208
	c-0.546,5.996-5.98,8.284-13.648,7.467c-7.667-0.816-35.427-4.642-42.739-5.421c-7.31-0.779-9.77-5.281-9.189-11.189
	C40.24,112.7,45.58,74.71,46.078,70.842c0.858-6.669,3.872-9.568,9.654-8.952c4.663,0.498,42.019,4.91,47.98,5.675
	C110.512,68.438,112.208,73.154,111.547,79.349z M53.577,70.598l-1.045,8.673l3.066,0.397c0.792-3.011,2.397-5.009,5.896-4.58
	c4.461,0.548,4.971,4.315,4.429,8.729c-0.542,4.414-1.846,7.814-6.392,7.256c-3.512-0.432-4.559-2.774-4.606-5.851l-3.071-0.336
	l-1.777,14.744l3.023,0.391c0.793-3.007,2.398-5.002,5.895-4.572c4.461,0.548,4.971,4.314,4.429,8.728
	c-0.542,4.415-1.845,7.814-6.391,7.256c-3.375-0.414-4.476-2.592-4.599-5.49l-3.079-0.317l-1.732,14.37l2.979,0.386
	c0.793-3.006,2.397-5.001,5.895-4.572c4.461,0.547,4.971,4.314,4.429,8.728c-0.542,4.415-1.845,7.814-6.392,7.256
	c-3.375-0.415-4.476-2.592-4.599-5.491l-3.034-0.312l-1.064,8.833l50.307,6.087l1.186-9.733l-5.192-0.534l0.494-4.818l5.267,0.682
	l1.913-15.692l-18.965-1.95l0.531-5.181l19.003,2.46l1.917-15.734l-5.857-0.641l0.509-4.747l5.911,0.766l1.133-9.293L53.577,70.598z
	 M87.709,94.461c-3.626-0.445-4.626-2.927-4.609-6.152l-14.08-1.542l0.567-5.287l14.121,1.829c0.769-3.152,2.366-5.273,5.964-4.832
	c4.461,0.548,4.97,4.314,4.429,8.728C93.559,91.62,92.256,95.02,87.709,94.461z M73.073,97.25c4.461,0.548,4.971,4.314,4.428,8.729
	c-0.542,4.414-1.844,7.814-6.391,7.256c-4.546-0.558-4.97-4.314-4.428-8.728S68.612,96.702,73.073,97.25z M70.459,117.597
	c4.461,0.547,4.971,4.314,4.429,8.728c-0.542,4.414-1.845,7.814-6.391,7.256s-4.971-4.314-4.429-8.728
	C64.61,120.439,65.998,117.048,70.459,117.597z M84.422,119.382c4.461,0.548,4.971,4.314,4.429,8.729
	c-0.542,4.414-1.844,7.814-6.392,7.256c-4.546-0.558-4.97-4.313-4.428-8.728S79.962,118.834,84.422,119.382z"/>
</svg>
