<svg id="Слой_1" data-name="Слой 1" xmlns="http://www.w3.org/2000/svg" viewBox="0 0 150 190"><defs><style>.cls-1{fill-rule:evenodd;}</style></defs><title>Монтажная область 19</title><path class="cls-1" d="M84.64,86.56l5.26,5.06.27,10.89-3.7,9.58.67,36c-6.53,1.29-16,.44-17.72-5.88,0,0,4.83-6,4.89-17.17,0-6.07-.39-19.85-.84-32.65L92.85,71l.49,17-5.17-4.76ZM72.6,68.9c-.09-2.3-.15-3.64-.15-3.64l16.76-.86.06,2.13-8.42,10ZM69.11,90.45c-7.89,2.86-15.49,9.25-15.49,9.25-10-9.38-11.25-28.47-2.06-38.27a91.32,91.32,0,0,0,14.13,6.86L77.88,80Z"/></svg>