<?xml version="1.0" encoding="utf-8"?>
<!-- Generator: Adobe Illustrator 16.0.0, SVG Export Plug-In . SVG Version: 6.00 Build 0)  -->
<!DOCTYPE svg PUBLIC "-//W3C//DTD SVG 1.1//EN" "http://www.w3.org/Graphics/SVG/1.1/DTD/svg11.dtd" [
	<!ENTITY ns_flows "http://ns.adobe.com/Flows/1.0/">
	<!ENTITY ns_extend "http://ns.adobe.com/Extensibility/1.0/">
	<!ENTITY ns_ai "http://ns.adobe.com/AdobeIllustrator/10.0/">
	<!ENTITY ns_graphs "http://ns.adobe.com/Graphs/1.0/">
]>
<svg version="1.1" id="Слой_1" xmlns:x="&ns_extend;" xmlns:i="&ns_ai;" xmlns:graph="&ns_graphs;"
	 xmlns="http://www.w3.org/2000/svg" xmlns:xlink="http://www.w3.org/1999/xlink" xmlns:a="http://ns.adobe.com/AdobeSVGViewerExtensions/3.0/"
	 x="0px" y="0px" width="150px" height="190px" viewBox="0 0 150 190" enable-background="new 0 0 150 190" xml:space="preserve">
<path fill-rule="evenodd" clip-rule="evenodd" d="M84.676,148.593l-13.551-3.465l0.748-6.006l8.83,2.272l2.75-14.292l17.415,2.759
	l6.416-52.44l-54.08-11.04l-8.249,65.813l10.033,2.582l0.965-3.318l12.834,3.003l-3.354,16.456l-6.848-5.394l-7.205,1.661
	l1.924-6.614l-14.766-3.775l10.082-76.854l65.08,12.88l-7.911,63.142L84.676,148.593z M99.951,85.702l-0.916,6.44l-39.414-7.361
	l0.916-6.439L99.951,85.702z M57.788,97.662l0.915-6.44l27.5,4.6l-0.918,6.44L57.788,97.662z M72.683,127.402l-1.565,4.076
	l-16.711-3.608l0.775-5.622l-2.91-4.922l3.907-3.089l0.87-6.12l5.036,0.776l3.048-4.09l4.355,4.058l5.163-1.115l0.543,5.73
	l4.419,3.113l-2.588,4.118l0.574,5.258L72.683,127.402z"/>
</svg>
