<svg id="Слой_1" data-name="Слой 1" xmlns="http://www.w3.org/2000/svg" viewBox="0 0 150 190"><defs><style>.cls-1{fill-rule:evenodd;}</style></defs><title>Монтажная область 27</title><path class="cls-1" d="M98.29,131.52c3.64,12.41-3,18.21-3,18.21l-6.06-18.84a36.75,36.75,0,0,1-13.19,2.26,41,41,0,0,1-15.76-2.92l-5.85,20s-6.61-9-3.5-18.88c.44-1.41,1-3.34,1.72-5.62a26.6,26.6,0,0,1-9.94-15.91l6.1-3a23.52,23.52,0,0,0,6.33,10.55c3-10,6.46-22,8.14-27.68-8.48-8.12-5.68-24.86,7.22-28L67.81,50.61l10.92-.81.44,11.82c13.52,3,15.65,21,6.71,28.88,1.34,4.38,3.91,12.8,6.47,21.26L85,117.49l-7.53-23.4c-.64.06-1.29.1-2,.1A21,21,0,0,1,71,93.73l-8.35,28.58a33.43,33.43,0,0,0,13.16,2.48c14,0,22.68-8.2,25.28-18.63l6.2,2.8a30,30,0,0,1-10.44,17.62C97.38,128.43,97.87,130.1,98.29,131.52ZM75.12,84.86c9.17,0,9.23-14.35-.16-14.35S65.07,84.86,75.12,84.86Z"/></svg>