<?xml version="1.0" encoding="utf-8"?>
<!-- Generator: Adobe Illustrator 16.0.0, SVG Export Plug-In . SVG Version: 6.00 Build 0)  -->
<!DOCTYPE svg PUBLIC "-//W3C//DTD SVG 1.1//EN" "http://www.w3.org/Graphics/SVG/1.1/DTD/svg11.dtd" [
	<!ENTITY ns_flows "http://ns.adobe.com/Flows/1.0/">
	<!ENTITY ns_extend "http://ns.adobe.com/Extensibility/1.0/">
	<!ENTITY ns_ai "http://ns.adobe.com/AdobeIllustrator/10.0/">
	<!ENTITY ns_graphs "http://ns.adobe.com/Graphs/1.0/">
]>
<svg version="1.1" id="Слой_1" xmlns:x="&ns_extend;" xmlns:i="&ns_ai;" xmlns:graph="&ns_graphs;"
	 xmlns="http://www.w3.org/2000/svg" xmlns:xlink="http://www.w3.org/1999/xlink" xmlns:a="http://ns.adobe.com/AdobeSVGViewerExtensions/3.0/"
	 x="0px" y="0px" width="150px" height="190px" viewBox="0 0 150 190" enable-background="new 0 0 150 190" xml:space="preserve">
<path fill-rule="evenodd" clip-rule="evenodd" d="M85.026,147.824l-46.033-7.917l9.199-78.574l65.055,9.11l-6.992,61.667
	L85.026,147.824z M52.773,67.716l-7.329,67.475l34.817,6.382l2.749-17.324l18.325,1.815l5.497-51.062L52.773,67.716z M58.177,85.479
	l0.525-6.46l41.104,6.144l-1.154,5.503L58.177,85.479z M95.821,104.161l-38.694-5.784l0.456-5.614l39.565,5.07L95.821,104.161z
	 M78.416,113.773l-22.405-1.666l0.521-6.404l23.718,2.55L78.416,113.773z"/>
</svg>
