<svg id="Слой_1" data-name="Слой 1" xmlns="http://www.w3.org/2000/svg" viewBox="0 0 150 190"><defs><style>.cls-1{fill-rule:evenodd;}</style></defs><title>Монтажная область 37</title><path class="cls-1" d="M137.24,147.17l-46.52.31c-14.87.11-15-20.58,1-20.7,5.18,0,40.26,0,44.41,0C151.17,126.66,151.63,147.07,137.24,147.17Zm-.54-14.43c-1.75,0-33.18,0-35.37,0-6.74.05-6.71,8.79-.43,8.75l36.27-.13C143.25,141.33,143.05,132.7,136.7,132.74ZM85.51,106l17.91-3.16L107,89.16l17.13-.35,10.19,6L141,121.46H83.4Zm35.5,3.48.33-15.08-10.8-.28-1.69,14.17Zm-33.85-9.05L81.87,86.67,65.66,83.61,59.12,94.28l-12.35-.94L55.15,66l11.21-5.24,3.26,2-1.5,10.95,25-3.35L103.7,86.44l-5,13.33Zm-24,13.31-2.94,6.63c-4.79,0-11.78,5.42-12.28,19.88l-5.63.14L41.08,128.5H36.66l-1.19,12.08-5.49.13L28.55,128.5H24.13v12.35l-6.87.17-2-15.71,4.17-3.93s-2-22.56,9.82-22.83c10.8-.24,24.3-.73,24.3-.73Zm4.6,13H78.22l-2.76,6H74.35c-6.74.05-6.71,8.79-.42,8.75h1.59l3.15,5.91-11.93.08C51.87,147.59,51.8,126.9,67.76,126.78Z"/></svg>