<svg id="Слой_1" data-name="Слой 1" xmlns="http://www.w3.org/2000/svg" viewBox="0 0 150 190"><defs><style>.cls-1{fill-rule:evenodd;}</style></defs><title>Монтажная область 1</title><path class="cls-1" d="M90.62,147.24H88.87c-.19-7.27-.43-17.71-.56-26.39l11.66-.23,2.22-13-13.94,1C88.5,98,90.47,96,97.37,96c2.16,0,4.38,0,5.85,0V82.48a80.78,80.78,0,0,0-11.59-.69C77.43,81.79,73,90.66,73,108.25v1.34l-7.17.49-.1,11.2,7.24-.14c0,9.24-.08,19-.11,25.84-6.11-.13-12.14-.26-17-.26-18.31,0-23.28-10.83-23.28-24.6s.27-29,.27-34.22c0-15.47,6.85-24.06,23.83-24.06,6.28,0,29.9-.06,37.94-.06,15.45,0,22.86,6.38,22.86,25.06,0,4.61-.34,13.24-.34,37.17C117.11,141.06,110,147.24,90.62,147.24Z"/></svg>