<svg id="Слой_1" data-name="Слой 1" xmlns="http://www.w3.org/2000/svg" viewBox="0 0 150 190"><defs><style>.cls-1{fill-rule:evenodd;}</style></defs><title>Монтажная область 55</title><path class="cls-1" d="M99.91,97.55l1.68,13.23L91,111.27l-6.55,10.6-11.28-6-12.92,2.34-3.4-10.76-10.76-4.06,2.07-12.52L42.5,80.7l10.94-6.86,2.05-13.66,12.14,3.37,10.91-9.14,6.71,10.21L98.84,64l-.23,14.19,8.89,7.92Zm-25-18.48c-12.65,0-13.72,19.83.89,19.83C88.13,98.9,87.8,79.07,74.92,79.07Zm-1.78,40.69,9,5.56-14.9,25.36-7.91-9.5-13.77-.28,8.8-17.12Zm34,17.54-15.45,1.92L84.86,151.4l-7.53-9.93L90.75,118.6Z"/></svg>