<?xml version="1.0" encoding="utf-8"?>
<!-- Generator: Adobe Illustrator 16.0.0, SVG Export Plug-In . SVG Version: 6.00 Build 0)  -->
<!DOCTYPE svg PUBLIC "-//W3C//DTD SVG 1.1//EN" "http://www.w3.org/Graphics/SVG/1.1/DTD/svg11.dtd" [
	<!ENTITY ns_flows "http://ns.adobe.com/Flows/1.0/">
	<!ENTITY ns_extend "http://ns.adobe.com/Extensibility/1.0/">
	<!ENTITY ns_ai "http://ns.adobe.com/AdobeIllustrator/10.0/">
	<!ENTITY ns_graphs "http://ns.adobe.com/Graphs/1.0/">
]>
<svg version="1.1" id="Слой_1" xmlns:x="&ns_extend;" xmlns:i="&ns_ai;" xmlns:graph="&ns_graphs;"
	 xmlns="http://www.w3.org/2000/svg" xmlns:xlink="http://www.w3.org/1999/xlink" xmlns:a="http://ns.adobe.com/AdobeSVGViewerExtensions/3.0/"
	 x="0px" y="0px" width="150px" height="190px" viewBox="0 0 150 190" enable-background="new 0 0 150 190" xml:space="preserve">
<path fill-rule="evenodd" clip-rule="evenodd" d="M118.923,96.69l-5.057,6.57l-38.98-29.19l-38.522,29.522l-5.286-6.584
	l43.823-35.487l17.505,13.984l0.605-10.179l13.778,0.532l-0.327,20.877L118.923,96.69z M44.043,104.437l31.189-23.666l31.735,23.238
	l-0.813,32.549l8.801-0.187l-0.402,10.639H36.642v-8.978l7.918-0.168L44.043,104.437z M52.946,123.275l21.36-0.504l0.011-10.804
	l-21.779-0.169L52.946,123.275z M97.757,112.149l-14.594-0.113l0.628,24.996l13.376-0.284L97.757,112.149z"/>
</svg>
