<svg id="Слой_1" data-name="Слой 1" xmlns="http://www.w3.org/2000/svg" viewBox="0 0 150 190"><defs><style>.cls-1{fill-rule:evenodd;}</style></defs><title>Монтажная область 3</title><path class="cls-1" d="M90.62,147.24c-10.32,0-25-.52-34.79-.52-18.31,0-23.28-10.83-23.28-24.6s.27-29,.27-34.22c0-15.47,6.85-24.06,23.83-24.06,6.28,0,29.9-.06,37.94-.06,15.45,0,22.86,6.38,22.86,25.06,0,4.61-.34,13.24-.34,37.17C117.11,141.06,110,147.24,90.62,147.24ZM75.12,83.69c-28.82,0-30.21,43.86.49,43.86C103.65,127.55,103.83,83.69,75.12,83.69ZM101.17,75c-8.33,0-8.73,12.61.15,12.61C109.42,87.59,109.48,75,101.17,75Z"/></svg>