<svg id="Слой_1" data-name="Слой 1" xmlns="http://www.w3.org/2000/svg" viewBox="0 0 150 190"><defs><style>.cls-1{fill-rule:evenodd;}</style></defs><title>Монтажная область 57</title><path class="cls-1" d="M76.15,64.52l6.34-7L106,64.12,87.67,82.24ZM58.64,84.25,44.81,63.18l20.73-5.81L82.42,83.29Zm16.15,4.17c40.81,0,41.84,61.39,2.83,61.39C31.36,149.81,34.76,88.42,74.79,88.42Zm23.48,21.16c-6,2.16-8.35,7.18-5.17,13.29C100.46,120.66,101.37,114.36,98.27,109.58Zm2.22,17.72c-5.79-2.7-11.2-2.12-13.31,4.43C94,135.34,99.28,132.85,100.49,127.3Zm-8.87,12.55c-3.7-5.28-8.67-5.75-13.79-1.12C81.89,145.22,88.11,144.73,91.62,139.85ZM79.48,128.28l-1.17-27.15-3.7-1.48-2.35,11.58-.9,18Zm-6.61,10.45c-5.13-4.62-10.13-4.83-13.79.39C62.93,143.32,68.81,145.22,72.87,138.73Zm-9.36-6.26c-2.11-6.55-6.77-8.61-12.57-5.91C52.16,132.11,56.73,136.07,63.51,132.47Zm-6.65-9.6c3.18-6.11,1.58-10.39-4.44-12.55C49.33,115.1,49.5,120.66,56.86,122.87Z"/></svg>