<svg id="Слой_1" data-name="Слой 1" xmlns="http://www.w3.org/2000/svg" viewBox="0 0 150 190"><defs><style>.cls-1{fill-rule:evenodd;}</style></defs><title>Монтажная область 36</title><path class="cls-1" d="M113.82,121.84c-3.83,0-14.66-.2-19.15-.29,0-12-.11-37.27-.11-39.43,30.36,0,38.21.41,38.72,11.08L114,92.6l2.53,13.19,16.79-.67c.07,11.77.19,27,.19,27l-4.92,1.89C127.34,127.58,122.4,121.84,113.82,121.84ZM97.34,142.22l-25.41.54-.56-13.46,12.47-.12-.41-3.3,9.21-.52v3.74l5.79-.06ZM69.43,121.8c-8.74-.6-29-9.57-42.34-19.33l8.5-29.83c16-1.26,37.26,2.1,45.38,5.44l9.4,14.86-4.92,20.18Zm-52.66-29L21.23,76a29.85,29.85,0,0,1,8.3-2.57L22.65,99A37,37,0,0,1,16.77,92.81Zm20.55,26-.3,3.56-14.3-.29-7.78-18,2.33-2.68Zm-6.19,6.79c14.76,0,15.13,22.73,1,22.73C15.42,148.33,16.65,125.6,31.13,125.6Zm.46,16.11c5.88,0,5.73-9.48-.42-9.48S24.62,141.71,31.59,141.71Zm25-16.11c14.76,0,15.13,22.73,1,22.73C40.87,148.33,42.1,125.6,56.58,125.6ZM57,141.71c5.88,0,5.73-9.48-.42-9.48S50.07,141.71,57,141.71Zm56.82-16.11c14.76,0,15.14,22.73,1,22.73C98.15,148.33,99.38,125.6,113.86,125.6Zm.47,16.11c5.88,0,5.72-9.48-.43-9.48S107.36,141.71,114.33,141.71Z"/></svg>