<svg id="Слой_1" data-name="Слой 1" xmlns="http://www.w3.org/2000/svg" viewBox="0 0 150 190"><defs><style>.cls-1{fill-rule:evenodd;}</style></defs><title>Монтажная область 2</title><path class="cls-1" d="M102.74,104.94c-3.63,1.33-17.25,6.1-21.61,7.48-2.32.74-2.79,2.27-2.88,6.34l4.48.24,0,20.92c0,11.19-17.16,10.63-17.1.44l.46-22.27,4.78.27c.13-6.83,1-10.29,6.53-12.12,3.9-1.3,20.23-6.78,22.79-7.71,3-1.09,4.41-3.25,4.41-7,0-1.74,0-18.77,0-18.77l6.44,3s0,15.61,0,17.36C111,99.49,107.64,103.16,102.74,104.94Zm-27.2-15.6c-3.63.53-3.8,2.86-3.8,6.53,0,.24,0,5.61,0,6.37,0,6.94-11.09,6.89-11.08.11,0-.64,0-6.79,0-7.72,0-2.46-4.42-2.54-4.42.44v1.21c0,6.73-9.6,6.23-9.6.11V90l-4.79.11-.64-27.18H101.1l-.7,25.84ZM51.43,105.05c6.23,0,6.19,9.52.11,9.52C44.87,114.57,45.17,105.05,51.43,105.05Z"/></svg>