<svg id="Слой_1" data-name="Слой 1" xmlns="http://www.w3.org/2000/svg" viewBox="0 0 150 190"><defs><style>.cls-1{fill-rule:evenodd;}</style></defs><title>Монтажная область 32</title><path class="cls-1" d="M143.06,85.06c-3.65,6-9.87,6.8-15.82,3l1.42-3.34c2.69,1.28,7.34,1.31,9.58-2.22,1.63-2.58,1-5.14-1.32-6.29a4.61,4.61,0,0,0-2.87-.32l-.26,1.29c3.53.75,2,5.43-.67,5.1a5.29,5.29,0,0,1-4.05-2.66,6.45,6.45,0,0,1,.46-6.07c1.72-2.86,6.12-4.22,9.94-1.8C144.14,74.74,146.14,80,143.06,85.06Zm-25.27,17.53-1.58-7.08,5.59-1.1,4.67,4.49-3.62,4.81ZM116.32,80c-5.4,1.21-10.55-1.13-11.93-6.86-1.63-6.79,2.18-11.78,9-13.33l1.36,3.37c-2.81,1-6.12,4.27-5.21,8.35.67,3,2.89,4.37,5.38,3.51a4.51,4.51,0,0,0,2.25-1.8l-.72-1.1c-3,2-5.22-2.46-3.14-4.08a5.28,5.28,0,0,1,4.75-1,6.45,6.45,0,0,1,4,4.62C122.89,74.9,120.73,79,116.32,80ZM85.23,110.8l-.66-21.25c4.51-.75,12,.21,17.16,3.72l.28,13A23.75,23.75,0,0,1,85.23,110.8Zm-19.67,8.44c-5.85-.06-18.55.35-25.82.61v9l-8,.57-2.35,7.34c4.59,1,5.26,7.37,5.22,10.66l-27,.23L15,102.91,5.47,94.52,8.34,86l70.24.56s.9,15.45.83,21.79C79.33,115.7,74,119.33,65.56,119.24ZM26,94.64l-2.55,15.15,5.06-.27,2.81-14.85Zm9.84.06-2.38,14.57,5-.26,2.49-14.28Zm9.7.06-2.31,14,4.91-.26,2.37-13.7ZM21.11,153.62c-1.87,11.45,1.26,22.92,1.26,22.92l-4.09,1.07s-6.51-8.09-4.71-24.67Zm37.37-29.24,11.91,1.06.78,21.29,2.36,5.11L55.22,152l2.24-5.39ZM105.6,95.55l4.57-1.09,5.48,9.32-9.75-1Zm4.85,18.3c.51.45,2.12,2.08,2.66,2.61-1.64,1.49-3,5.52-3,8.29-.1,6.74,4,11.08,11.08,11.12,4.62,0,7.92-4.35,8-8.14.07-4.54-1.86-6.94-6-7.18-3.05-.18-5,1.66-4.79,4.29a4.58,4.58,0,0,0,1.16,2.64l1.25-.42c-1.12-3.43,3.73-4.4,4.75-2a5.3,5.3,0,0,1-.28,4.84,6.47,6.47,0,0,1-5.49,2.64c-3.33-.06-6.71-3.2-6.53-7.71.23-5.53,3.82-9.86,9.71-9.75,7.63.14,11.94,5.44,11.83,12.53s-5.7,14.27-13.88,14c-10.56-.42-16.48-6.89-16.09-16.88C104.9,121.31,107.23,116.23,110.45,113.85Z"/></svg>