<svg id="Слой_1" data-name="Слой 1" xmlns="http://www.w3.org/2000/svg" viewBox="0 0 150 190"><defs><style>.cls-1{fill-rule:evenodd;}</style></defs><title>Монтажная область 29</title><path class="cls-1" d="M35.73,147.92l-.82-27.35,75.44-.88c.22,10.51,6.07,17.29,16.26,16.74l-.44,11Zm48-31.21L81,110.89c10.86-2.49,16.78-9.36,16.78-17.72,0-7.88-4.73-12.88-11.95-12.88C79,80.29,76,85,76,89.35c0,5.13,3.19,8,6.59,8a5,5,0,0,0,5.07-5.06A4.4,4.4,0,0,0,84.84,88L86.24,85c2.45.42,6.51,3.57,6.36,8-.2,5.7-4.12,9.38-10.26,9.38-7.58,0-11.53-5.76-11.53-13.62,0-8.08,6.25-14.33,15.31-14.33,11,0,17.79,7.58,17.79,19C103.91,105.62,94.67,113.65,83.74,116.71Zm-28.33-.8L43.07,96.58l15.8-11.06L79,116.2Zm-14.14-.18L23.39,91.49l7.66-4.39,18.43,28.74Z"/></svg>