<?xml version="1.0" encoding="utf-8"?>
<!-- Generator: Adobe Illustrator 16.0.0, SVG Export Plug-In . SVG Version: 6.00 Build 0)  -->
<!DOCTYPE svg PUBLIC "-//W3C//DTD SVG 1.1//EN" "http://www.w3.org/Graphics/SVG/1.1/DTD/svg11.dtd" [
	<!ENTITY ns_flows "http://ns.adobe.com/Flows/1.0/">
	<!ENTITY ns_extend "http://ns.adobe.com/Extensibility/1.0/">
	<!ENTITY ns_ai "http://ns.adobe.com/AdobeIllustrator/10.0/">
	<!ENTITY ns_graphs "http://ns.adobe.com/Graphs/1.0/">
]>
<svg version="1.1" id="Слой_1" xmlns:x="&ns_extend;" xmlns:i="&ns_ai;" xmlns:graph="&ns_graphs;"
	 xmlns="http://www.w3.org/2000/svg" xmlns:xlink="http://www.w3.org/1999/xlink" xmlns:a="http://ns.adobe.com/AdobeSVGViewerExtensions/3.0/"
	 x="0px" y="0px" width="150px" height="190px" viewBox="0 0 150 190" enable-background="new 0 0 150 190" xml:space="preserve">
<path fill-rule="evenodd" clip-rule="evenodd" d="M85.026,147.825l-46.034-7.917l9.2-78.574l65.055,9.11l-6.992,61.668
	L85.026,147.825z M52.774,67.716l-7.331,67.475l34.818,6.382l2.748-17.324l18.326,1.815l5.497-51.062L52.774,67.716z M93.105,88.784
	l0.87-6.404l6.551,0.92l-0.82,6.45L93.105,88.784z M98.084,102.506l-6.697-1.075l0.958-7.049l6.667,0.819L98.084,102.506z
	 M96.439,115.435l-6.818-0.999l0.976-7.185l6.774,0.85L96.439,115.435z M79.045,86.726l0.973-6.307L90.28,81.86l-1.101,6.349
	L79.045,86.726z M87.011,100.729l-9.879-1.586l1.003-6.506l10.064,1.237L87.011,100.729z M84.759,113.725l-9.656-1.414l1.059-6.871
	l9.819,1.232L84.759,113.725z M57.836,83.621l0.634-6.23l17.021,2.392l-0.965,6.282L57.836,83.621z M72.631,98.419l-16.037-2.575
	l0.588-5.784l16.422,2.019L72.631,98.419z M70.6,111.652L55.215,109.4l0.662-6.503l15.764,1.978L70.6,111.652z"/>
</svg>
