<svg id="Слой_1" data-name="Слой 1" xmlns="http://www.w3.org/2000/svg" viewBox="0 0 150 190"><defs><style>.cls-1{fill-rule:evenodd;}</style></defs><title>Монтажная область 5</title><path class="cls-1" d="M92.18,108.27c-2.36,0-6.24.08-10.57.12l.14-7L78.6,99.61,76,107.37l.26,12.23h3.38s.92,11.27,1.71,21.21c.87,11.06-18.4,10.88-17.61.12.72-9.81,1.57-21.3,1.57-21.3h3.76l0-11.13-10.64.07c-7.18,0-12.52-5.74-7.93-14.28C54.92,86,65.81,65,68.14,60.75c3.38-6.24,9.27-7,12.87,0,2.36,4.54,15.41,29.17,18.69,35C103.4,102.19,100.15,108.13,92.18,108.27Z"/></svg>