<svg id="Слой_1" data-name="Слой 1" xmlns="http://www.w3.org/2000/svg" viewBox="0 0 150 190"><defs><style>.cls-1{fill-rule:evenodd;}</style></defs><title>Монтажная область 2</title><path class="cls-1" d="M90.62,147.24c-10.32,0-25-.52-34.79-.52-18.31,0-23.28-10.83-23.28-24.6s.27-29,.27-34.22c0-15.47,6.85-24.06,23.83-24.06,6.28,0,29.9-.06,37.94-.06,15.45,0,22.86,6.38,22.86,25.06,0,4.61-.34,13.24-.34,37.17C117.11,141.06,110,147.24,90.62,147.24Zm16-53.51L96,86.17,80.38,103.39l.48-15.3L66.3,87.85,68,93.44l.34,17c-5.3-.92-11.76-14.21-11.35-22l-13.87.19c3.38,27.41,23.64,40.72,36.57,38.84L80,117.35c1-.48,2.36-1.22,4-2.2l9.35,12.27,15.38-.83L94,108A59.84,59.84,0,0,0,106.63,93.73Z"/></svg>