<?xml version="1.0" encoding="utf-8"?>
<!-- Generator: Adobe Illustrator 16.0.0, SVG Export Plug-In . SVG Version: 6.00 Build 0)  -->
<!DOCTYPE svg PUBLIC "-//W3C//DTD SVG 1.1//EN" "http://www.w3.org/Graphics/SVG/1.1/DTD/svg11.dtd" [
	<!ENTITY ns_flows "http://ns.adobe.com/Flows/1.0/">
	<!ENTITY ns_extend "http://ns.adobe.com/Extensibility/1.0/">
	<!ENTITY ns_ai "http://ns.adobe.com/AdobeIllustrator/10.0/">
	<!ENTITY ns_graphs "http://ns.adobe.com/Graphs/1.0/">
]>
<svg version="1.1" id="Слой_1" xmlns:x="&ns_extend;" xmlns:i="&ns_ai;" xmlns:graph="&ns_graphs;"
	 xmlns="http://www.w3.org/2000/svg" xmlns:xlink="http://www.w3.org/1999/xlink" xmlns:a="http://ns.adobe.com/AdobeSVGViewerExtensions/3.0/"
	 x="0px" y="0px" width="150px" height="190px" viewBox="0 0 150 190" enable-background="new 0 0 150 190" xml:space="preserve">
<path fill-rule="evenodd" clip-rule="evenodd" d="M103.249,151.531l-34.625-9.162l-12.98,8.805l-34.758-9.197l0.465-33.301
	l22.261-14.142l5.825,1.554l0.69-26.614l29.724-10.053l24.996,14.368l0.355,24.832l18.975,5.061l0.965,33.694L103.249,151.531z
	 M99.103,142.655l-0.148-21.292l-23.143-5.479l-0.16,20.692L99.103,142.655z M64.074,110.506l-5.736-3.356l-10.803,7.099
	l6.943,1.934L64.074,110.506z M27.863,136.219l25.558,7.04l-0.148-21.292l-8.733-2.228l-0.415,10.241l-8.082-2.379l0.513-9.898
	l-8.533-2.177L27.863,136.219z M51.208,102.979l-6.015-1.396l-13.927,8.136l7.855,2.188l12.872-8.469L51.208,102.979z
	 M55.826,97.908l17.303,10.401V87.857l-5.951-2.985l-0.004,9.501l-6.458-3.924l-0.136-8.888L55.873,79.2L55.826,97.908z
	 M79.065,65.6l-21.007,7.213l4.524,2.184l20.867-7.023L79.065,65.6z M91.781,72.484l-20.896,6.52l5.024,2.425l20.659-6.353
	L91.781,72.484z M114.252,109.869l-11.092-2.94l-9.259,2.935l14.797,3.136l0.561,13.055l5.133-3.241L114.252,109.869z"/>
</svg>
