<svg id="Слой_1" data-name="Слой 1" xmlns="http://www.w3.org/2000/svg" viewBox="0 0 150 190"><defs><style>.cls-1{fill-rule:evenodd;}</style></defs><title>Монтажная область 12</title><path class="cls-1" d="M119.24,108.34l-4.33,4.06L97.35,95.77,51,145.89c-7.88,7.94-19.66-4.62-12.41-11.78l25.31-23.33L51.41,97.24,35.6,112.82l-4.19-3.6L29.94,91l8.21-8.16-3.94-4.29,7.56-6.28,3.63,3.37,12-12L71.9,77.06,59.82,89l13.84,12.79,15.21-14-11-10.38L92.17,63.77l11.09,10.71,3.56-3.29,6.27,7.57-2.55,2.75,9.52,9.19Zm-11.35,25c8,7.88-4.62,19.65-11.78,12.41l-18.45-20,10.09-11Z"/></svg>