<svg id="Слой_1" data-name="Слой 1" xmlns="http://www.w3.org/2000/svg" xmlns:xlink="http://www.w3.org/1999/xlink" viewBox="0 0 150 190"><defs><style>.cls-1{fill-rule:evenodd;fill:url(#linear-gradient);}</style><linearGradient id="linear-gradient" x1="123.25" y1="147.11" x2="34.62" y2="58.49" gradientUnits="userSpaceOnUse"><stop offset="0" stop-color="#ff1e00"/><stop offset="1"/></linearGradient></defs><title>Монтажная область 42</title><path class="cls-1" d="M115.24,118.59c19.7,0,20.65,29.83-.34,29.83-8.4,0-13.14-5.72-14.17-12.15a39.49,39.49,0,0,0,7.6,1.51,7.39,7.39,0,0,0,6.8,3.87c11.46,0,10.94-16.28.19-16.28a7.66,7.66,0,0,0-6.32,2.9c5.27,1.88,8.61,3.09,8.61,3.09l-1.2,4.1s-10.26-1-13.85-2.34c-9.92-3.66-32.28-11.26-52.74-17.61-5.68-1.77-10.24-4.5-12.75-7.86s-8-10.57-9.92-13.2-4.13-3.34-7-3.34S13.86,91,11.76,91c-4.51,0-4.55-8.23-.24-8.23l11.38,0c4.33,0,6.09,1.14,8.54,4.37,2.26,3,11.16,14.24,12.79,16.28a12,12,0,0,0,4.13,3.2L41.8,89.1,122.44,89l1.25,3.73s-14.48,17.42-26.16,31.43l4.85,1.73C104.63,121.69,108.9,118.59,115.24,118.59ZM67,136.93c1.23,3.77,5,6.35,11.7-1.13,1.13-1.25,3-3.31,4.74-5.36l6.93,2.32c-3.26,3.9-5.75,6.86-6.79,8.08C74,152,63.92,148.55,61,140.48c-1.1-3-4.12-11.1-7.43-20l8.55,2.84C64,128.42,66.35,135,67,136.93Z"/></svg>