<?xml version="1.0" standalone="no"?>
<!DOCTYPE svg PUBLIC "-//W3C//DTD SVG 20010904//EN"
 "http://www.w3.org/TR/2001/REC-SVG-20010904/DTD/svg10.dtd">
<svg version="1.0" xmlns="http://www.w3.org/2000/svg"
 width="700.000000pt" height="700.000000pt" viewBox="0 0 700.000000 700.000000"
 preserveAspectRatio="xMidYMid meet">
<metadata>
Created by potrace 1.11, written by Peter Selinger 2001-2013
</metadata>
<g transform="translate(0.000000,700.000000) scale(0.100000,-0.100000)"
fill="#000000" stroke="none">
<path d="M2373 6413 c-19 -4 -303 -288 -625 -626 l-93 -97 -165 -54 c-91 -29
-253 -81 -360 -116 -107 -34 -220 -70 -250 -80 -30 -10 -111 -36 -180 -58 -69
-22 -240 -77 -380 -122 -379 -123 -374 -112 -208 -445 108 -217 273 -477 402
-635 20 -25 54 -65 74 -90 298 -364 767 -717 1227 -924 154 -69 183 -73 233
-31 24 20 39 52 73 157 24 73 44 135 44 138 1 3 36 113 79 245 43 132 100 310
128 395 27 85 60 187 72 225 13 39 36 109 51 158 28 87 40 102 52 70 4 -9 12
-24 19 -33 7 -8 60 -78 116 -155 57 -77 111 -149 120 -160 272 -329 565 -639
808 -855 52 -47 97 -87 100 -91 16 -17 256 -212 375 -304 154 -120 417 -327
425 -335 3 -3 32 -27 65 -55 199 -166 346 -309 536 -520 181 -202 420 -554
567 -835 65 -123 182 -378 182 -395 0 -4 6 -21 14 -38 8 -18 23 -53 34 -78 31
-72 63 -83 252 -83 138 0 166 3 254 27 187 52 354 155 502 310 l84 88 0 58 c0
56 -3 63 -86 191 -47 74 -113 172 -147 219 -100 140 -327 442 -376 501 -62 74
-231 271 -250 291 -9 9 -50 54 -91 100 -78 87 -521 534 -600 605 -457 409
-633 550 -985 789 -210 142 -208 141 -297 207 -124 93 -274 226 -418 374 -174
179 -245 258 -353 394 -37 47 -71 90 -75 95 -30 37 -128 176 -193 274 l-78
116 114 115 c132 134 145 156 132 220 -8 42 -35 71 -400 439 -222 222 -406
399 -424 407 -32 14 -56 15 -100 7z m354 -585 l293 -293 -330 -330 c-182 -182
-330 -337 -330 -345 0 -11 -82 -272 -155 -495 -49 -147 -159 -490 -161 -500
-1 -5 -25 -82 -54 -170 -28 -88 -61 -189 -72 -225 -11 -36 -23 -68 -25 -73 -4
-7 -282 132 -311 155 -7 6 -26 18 -42 27 -65 35 -272 185 -375 273 -117 98
-264 242 -355 348 -30 35 -62 71 -70 80 -33 35 -171 221 -230 310 -112 169
-239 406 -224 419 9 8 68 27 374 121 74 23 182 56 240 75 58 18 164 51 235 73
72 23 209 65 305 95 96 30 209 65 250 77 l75 22 185 183 c326 322 473 465 479
465 3 0 137 -132 298 -292z m219 -860 c107 -154 267 -362 394 -513 118 -141
366 -399 475 -494 106 -94 312 -246 597 -442 l138 -94 -159 -159 -160 -160
-58 44 c-63 48 -251 198 -269 215 -6 5 -24 21 -40 34 -213 180 -524 491 -747
749 -50 58 -263 336 -308 402 -24 36 -49 70 -54 76 -6 6 -35 48 -64 93 l-54
82 124 125 c68 68 125 124 126 124 1 0 28 -37 59 -82z m1929 -1813 c61 -49
112 -92 115 -95 3 -3 41 -36 85 -74 44 -39 85 -75 90 -80 6 -6 57 -54 115
-106 131 -117 528 -514 636 -635 138 -154 251 -287 339 -400 17 -21 35 -43 40
-49 6 -6 32 -40 57 -76 l46 -65 -39 -35 c-132 -116 -474 -278 -501 -237 -5 6
-31 53 -58 102 -60 108 -51 92 -176 285 -88 135 -253 365 -272 380 -4 3 -25
28 -47 55 -21 28 -42 52 -45 55 -3 3 -22 25 -44 50 -161 186 -422 428 -684
634 l-113 89 157 158 c133 134 160 157 173 146 9 -6 66 -52 126 -102z m1777
-1915 l86 -125 -27 -30 c-45 -50 -133 -121 -191 -153 -99 -55 -250 -103 -330
-104 -86 -2 -98 2 -110 35 -7 17 -33 74 -57 124 -23 51 -43 97 -43 102 0 5 12
12 27 16 41 10 210 83 273 118 68 37 224 143 241 163 16 19 22 13 131 -146z"/>
</g>
</svg>
